<svg width="22" height="22" viewBox="0 0 22 22" fill="none" xmlns="http://www.w3.org/2000/svg">
<path d="M21.351 10.538L11.451 0.638C11.055 0.242 10.505 0 9.9 0H2.2C0.99 0 0 0.99 0 2.2V9.9C0 10.505 0.242 11.055 0.649 11.462L10.549 21.362C10.945 21.758 11.495 22 12.1 22C12.705 22 13.255 21.758 13.651 21.351L21.351 13.651C21.758 13.255 22 12.705 22 12.1C22 11.495 21.747 10.934 21.351 10.538ZM3.85 5.5C2.937 5.5 2.2 4.763 2.2 3.85C2.2 2.937 2.937 2.2 3.85 2.2C4.763 2.2 5.5 2.937 5.5 3.85C5.5 4.763 4.763 5.5 3.85 5.5Z" fill="#363262"/>
</svg>
