<svg width="22" height="24" viewBox="0 0 22 24" fill="none" xmlns="http://www.w3.org/2000/svg">
<path d="M15.8889 10.8H6.11111C5.43889 10.8 4.88889 11.34 4.88889 12C4.88889 12.66 5.43889 13.2 6.11111 13.2H15.8889C16.5611 13.2 17.1111 12.66 17.1111 12C17.1111 11.34 16.5611 10.8 15.8889 10.8ZM19.5556 2.4H18.3333V1.2C18.3333 0.54 17.7833 0 17.1111 0C16.4389 0 15.8889 0.54 15.8889 1.2V2.4H6.11111V1.2C6.11111 0.54 5.56111 0 4.88889 0C4.21667 0 3.66667 0.54 3.66667 1.2V2.4H2.44444C1.79614 2.4 1.17438 2.65286 0.715961 3.10294C0.257539 3.55303 0 4.16348 0 4.8V21.6C0 22.2365 0.257539 22.847 0.715961 23.2971C1.17438 23.7471 1.79614 24 2.44444 24H19.5556C20.9 24 22 22.92 22 21.6V4.8C22 3.48 20.9 2.4 19.5556 2.4ZM18.3333 21.6H3.66667C2.99444 21.6 2.44444 21.06 2.44444 20.4V8.4H19.5556V20.4C19.5556 21.06 19.0056 21.6 18.3333 21.6ZM12.2222 15.6H6.11111C5.43889 15.6 4.88889 16.14 4.88889 16.8C4.88889 17.46 5.43889 18 6.11111 18H12.2222C12.8944 18 13.4444 17.46 13.4444 16.8C13.4444 16.14 12.8944 15.6 12.2222 15.6Z" fill="#363262"/>
</svg>
