<svg width="28" height="28" viewBox="0 0 28 28" fill="none" xmlns="http://www.w3.org/2000/svg">
<path d="M26.7272 5.09091H21.7399V1.27273C21.7399 0.572727 21.1644 0 20.461 0C19.7577 0 19.1822 0.572727 19.1822 1.27273V5.09091H14.1948C13.4403 5.09091 12.8521 5.74 12.916 6.49091L13.0695 8.03091C17.7755 9.11273 21.7399 12.4345 21.7399 17.8182L21.7654 28H23.9394C25.0136 28 25.896 27.1727 26.0239 26.1291L27.9933 6.49091C28.07 5.74 27.4817 5.09091 26.7272 5.09091ZM17.9034 25.4545H1.27882C0.575467 25.4545 0 26.0273 0 26.7273C0 27.4273 0.575467 28 1.27882 28H17.9034C18.6068 28 19.1822 27.4273 19.1822 26.7273C19.1822 26.0273 18.6068 25.4545 17.9034 25.4545ZM1.4067 17.8182H17.7755C18.5684 17.8182 19.195 17.1055 19.0416 16.3418C18.2103 12.2309 13.9007 10.1691 9.59111 10.1691C5.28151 10.1691 0.984688 12.2309 0.14067 16.3418C-0.0127881 17.1055 0.626619 17.8182 1.4067 17.8182ZM17.9034 20.3636H1.27882C0.575467 20.3636 0 20.9364 0 21.6364C0 22.3364 0.575467 22.9091 1.27882 22.9091H17.9034C18.6068 22.9091 19.1822 22.3364 19.1822 21.6364C19.1822 20.9364 18.6068 20.3636 17.9034 20.3636Z" fill="#363262"/>
</svg>
