<svg width="204" height="54" viewBox="0 0 204 54" fill="none" xmlns="http://www.w3.org/2000/svg">
<path d="M60.5192 12.169H48.4153V0H42.3634V18.2535H48.4153H60.5192V24.338H42.3634V30.4225H60.5192H66.5711V0H60.5192V12.169Z" fill="#DB3636"/>
<path d="M36.3115 0H12.1039V6.08451H36.3115V0Z" fill="#DB3636"/>
<path d="M30.2596 12.169H12.1039V18.2535H30.2596V12.169Z" fill="#DB3636"/>
<path d="M6.05192 12.169H0V18.2535H6.05192V12.169Z" fill="#DB3636"/>
<path d="M6.05192 24.338H0V30.4225H6.05192V24.338Z" fill="#DB3636"/>
<path d="M6.05192 0H0V6.08451H6.05192V0Z" fill="#DB3636"/>
<path d="M204 0H195.553L184.625 10.9437L173.74 0L173.656 0.084507V0H145.246V6.08451H171.261L180.381 15.169L171.219 24.338H139.194V0H133.142V30.4225H139.194H173.656V30.338L173.74 30.4225L184.667 19.4366L195.679 30.4225H204L188.87 15.2113L204 0Z" fill="#DB3636"/>
<path d="M36.3115 24.338H12.1039V30.4225H36.3115V24.338Z" fill="#DB3636"/>
<path d="M163.402 12.169H145.246V18.2535H163.402V12.169Z" fill="#DB3636"/>
<path d="M72.623 0V6.08451V12.169V18.2535V24.338V30.4225H78.6749H96.8307V24.338H78.6749V18.2535H90.7787V12.169H78.6749V6.08451H96.8307V0H78.6749H72.623Z" fill="#DB3636"/>
<path d="M108.935 0H102.883V30.4225H108.935V18.2535H121.038H127.09V12.169V6.08451V0H121.038H108.935ZM121.038 12.169H108.935V6.08451H121.038V12.169Z" fill="#DB3636"/>
<path d="M66.571 41.831H69.4289L72.623 46.9859L75.817 41.831H78.6749V54H76.0272V46.0563L72.623 51.2535H72.5389L69.1767 46.0986V54H66.571V41.831Z" fill="#DB3636"/>
<path d="M91.6193 41.7465H94.0568L99.2682 54H96.4944L95.4017 51.2535H90.2744L89.1817 54H86.4499L91.6193 41.7465ZM94.4351 48.8873L92.8381 44.9578L91.241 48.8873H94.4351Z" fill="#DB3636"/>
<path d="M107.001 41.831H109.649V51.5493H115.701V54H107.001V41.831Z" fill="#DB3636"/>
<path d="M123.602 41.831H126.25V51.5493H132.302V54H123.602V41.831Z" fill="#DB3636"/>
<path d="M47.953 46.8169H0V48.0845H47.953V46.8169Z" fill="#DB3636"/>
<path d="M204 46.8169H148.356V48.0845H204V46.8169Z" fill="#DB3636"/>
</svg>
