<svg width="26" height="26" viewBox="0 0 26 26" fill="none" xmlns="http://www.w3.org/2000/svg">
<path d="M13 0.5C19.9037 0.5 25.5 6.09625 25.5 13C25.5 19.9037 19.9037 25.5 13 25.5C6.09625 25.5 0.5 19.9037 0.5 13C0.5 6.09625 6.09625 0.5 13 0.5ZM13 3C12.1712 3 11.3763 3.32924 10.7903 3.91529C10.2042 4.50134 9.875 5.2962 9.875 6.125C9.875 6.9538 10.2042 7.74866 10.7903 8.33471C11.3763 8.92076 12.1712 9.25 13 9.25C13.8288 9.25 14.6237 8.92076 15.2097 8.33471C15.7958 7.74866 16.125 6.9538 16.125 6.125C16.125 5.2962 15.7958 4.50134 15.2097 3.91529C14.6237 3.32924 13.8288 3 13 3ZM3.4975 9.90875C3.36554 10.3004 3.31256 10.7142 3.34162 11.1265C3.37069 11.5387 3.48122 11.941 3.66682 12.3102C3.85243 12.6794 4.10941 13.0082 4.42291 13.2774C4.73641 13.5466 5.10019 13.751 5.4932 13.8787C5.88622 14.0064 6.30065 14.0549 6.71253 14.0213C7.1244 13.9878 7.52553 13.8729 7.8927 13.6833C8.25988 13.4937 8.5858 13.2332 8.85161 12.9168C9.11742 12.6004 9.31783 12.2344 9.44125 11.84C9.68703 11.0546 9.61311 10.204 9.23553 9.47284C8.85796 8.74165 8.20721 8.18891 7.42457 7.93461C6.64192 7.68031 5.79056 7.74499 5.05531 8.1146C4.32007 8.48421 3.76028 9.12891 3.4975 9.90875ZM22.5062 9.9025C22.3828 9.50812 22.1824 9.14214 21.9166 8.82574C21.6508 8.50933 21.3249 8.24879 20.9577 8.05919C20.5905 7.86959 20.1894 7.75469 19.7775 7.72115C19.3657 7.68761 18.9512 7.73609 18.5582 7.86379C18.1652 7.99149 17.8014 8.19587 17.4879 8.4651C17.1744 8.73432 16.9174 9.06306 16.7318 9.43227C16.5462 9.80148 16.4357 10.2038 16.4066 10.616C16.3776 11.0283 16.4305 11.4421 16.5625 11.8338C16.8253 12.6136 17.3851 13.2583 18.1203 13.6279C18.8556 13.9975 19.7069 14.0622 20.4896 13.8079C21.2722 13.5536 21.923 13.0008 22.3005 12.2697C22.6781 11.5385 22.752 10.6879 22.5062 9.9025ZM7.13125 21.08C7.80175 21.5673 8.63838 21.7684 9.4571 21.6388C9.86248 21.5747 10.2513 21.4314 10.6013 21.217C10.9512 21.0026 11.2556 20.7214 11.4969 20.3894C11.7382 20.0574 11.9117 19.6811 12.0076 19.282C12.1035 18.883 12.1198 18.4689 12.0557 18.0635C11.9916 17.6581 11.8482 17.2694 11.6339 16.9194C11.4195 16.5694 11.1382 16.2651 10.8062 16.0237C10.1357 15.5364 9.29912 15.3354 8.4804 15.4649C7.66169 15.5944 6.92796 16.0439 6.44063 16.7144C5.95329 17.3849 5.75227 18.2215 5.88179 19.0402C6.0113 19.8589 6.46075 20.5927 7.13125 21.08ZM18.88 21.0763C19.2134 20.8356 19.4961 20.5315 19.7118 20.1814C19.9275 19.8313 20.072 19.442 20.1369 19.036C20.2019 18.6299 20.1861 18.215 20.0904 17.8151C19.9947 17.4152 19.821 17.0381 19.5793 16.7054C19.3376 16.3727 19.0326 16.091 18.6818 15.8764C18.331 15.6619 17.9413 15.5186 17.5351 15.455C17.1288 15.3913 16.714 15.4084 16.3143 15.5054C15.9147 15.6023 15.5382 15.7772 15.2063 16.02C14.5387 16.5083 14.0919 17.2413 13.9639 18.0584C13.8358 18.8755 14.0369 19.71 14.523 20.3792C15.0092 21.0483 15.7408 21.4974 16.5575 21.628C17.3742 21.7587 18.2093 21.5603 18.88 21.0763ZM13 11.125C12.5027 11.125 12.0258 11.3225 11.6742 11.6742C11.3225 12.0258 11.125 12.5027 11.125 13C11.125 13.4973 11.3225 13.9742 11.6742 14.3258C12.0258 14.6775 12.5027 14.875 13 14.875C13.4973 14.875 13.9742 14.6775 14.3258 14.3258C14.6775 13.9742 14.875 13.4973 14.875 13C14.875 12.5027 14.6775 12.0258 14.3258 11.6742C13.9742 11.3225 13.4973 11.125 13 11.125Z" fill="#363262"/>
</svg>
