<svg width="28" height="32" viewBox="0 0 28 32" fill="none" xmlns="http://www.w3.org/2000/svg">
<path d="M22 10V8C22 3.58875 18.4112 0 14 0C9.58875 0 6 3.58875 6 8V10H0V27C0 29.7614 2.23856 32 5 32H23C25.7614 32 28 29.7614 28 27V10H22ZM10 8C10 5.79437 11.7944 4 14 4C16.2056 4 18 5.79437 18 8V10H10V8ZM20 15.5C19.1716 15.5 18.5 14.8284 18.5 14C18.5 13.1716 19.1716 12.5 20 12.5C20.8284 12.5 21.5 13.1716 21.5 14C21.5 14.8284 20.8284 15.5 20 15.5ZM8 15.5C7.17156 15.5 6.5 14.8284 6.5 14C6.5 13.1716 7.17156 12.5 8 12.5C8.82844 12.5 9.5 13.1716 9.5 14C9.5 14.8284 8.82844 15.5 8 15.5Z" fill="#DB3636"/>
</svg>
