<svg width="24" height="17" viewBox="0 0 24 17" fill="none" xmlns="http://www.w3.org/2000/svg">
<path d="M23.4991 2.65557C23.3625 2.14135 23.0946 1.6724 22.7223 1.29567C22.35 0.91894 21.8863 0.647638 21.3777 0.508917C19.5054 5.96046e-08 12 0 12 0C12 0 4.49464 -1.19209e-07 2.62232 0.50621C2.11345 0.644481 1.64953 0.915632 1.27716 1.29243C0.904787 1.66923 0.637069 2.13842 0.500893 2.65287C-1.19209e-07 4.54777 0 8.5 0 8.5C0 8.5 -1.19209e-07 12.4522 0.500893 14.3444C0.776786 15.3893 1.59107 16.2123 2.62232 16.4911C4.49464 17 12 17 12 17C12 17 19.5054 17 21.3777 16.4911C22.4116 16.2123 23.2232 15.3893 23.4991 14.3444C24 12.4522 24 8.5 24 8.5C24 8.5 24 4.54777 23.4991 2.65557ZM9.61607 12.1274V4.87261L15.8304 8.47293L9.61607 12.1274Z" fill="#A2A2A2"/>
</svg>
